<?xml version="1.0" encoding="utf-8"?>
<!-- Generator: Adobe Illustrator 22.0.1, SVG Export Plug-In . SVG Version: 6.00 Build 0)  -->
<svg version="1.1" id="Layer_1" xmlns="http://www.w3.org/2000/svg" xmlns:xlink="http://www.w3.org/1999/xlink" x="0px" y="0px"
	 viewBox="0 0 50 31.3" style="enable-background:new 0 0 50 31.3;" xml:space="preserve">
<style type="text/css">
	.st0{fill:#FDCD08;}
</style>
<g>
	<path class="st0" d="M40.9,24.3c0.7,0.6,1.5,0.2,2.2,0.1c0.6-0.1,1,0,1.6,0.1c0,0.5-0.4,0.4-0.7,0.5c-4.7,0.6-9.4,1.1-14,1.8
		c-2.5,0.4-4.9,1-7.4,1.6c-0.9,0.2-1.8,0-2.6,0.5c-0.2,0.2-0.5,0-0.6-0.2c-0.1-0.5,0.5-0.4,0.8-0.8c-1.4-0.2-2.4-1.1-3.3-1.9
		c-0.3-0.3-0.3-0.4,0.1-0.6c1.2-0.5,2.4-1.1,3.8-1.3c-0.8-0.4-1.7,0-2.5,0c-1.7,0.2-3.4,0.9-5.2,0.6c-0.2,0-0.3,0-0.4-0.3
		c0.9-0.2,1.8-0.2,2.6-0.7c-0.8,0.1-1.6-1.2-2.5,0c-0.1-0.4,0.3-0.7,0-0.9c-0.2-0.2-0.9,0.1-0.7-0.4c0.1-0.5,0.7-0.3,1.1-0.4
		c0,0,0.1,0,0.1-0.1c-0.8-0.6-1.9,0-2.7-0.8c1-0.7,2.6-0.1,3.7-1.1c-2-0.1-3.9,0.5-5.8,0c1-0.5,2.1-0.4,3.1-0.8
		c-1.2-0.3-2.4-0.1-3.6-0.5c-0.2-0.1-0.6-0.1-0.6-0.3c0.5-1.2-0.9-1-1.2-1.7c1.1-0.9,2.6-0.6,3.9-1.3c-0.5-0.3-0.1-1.2-1.4-1.1
		c2-1.6,4.2-1.9,6.3-2.2c2.1-0.3,4.2-0.9,6.3-1.2c-6.3,0-12.4,1.6-18.7,2.2c0.5-0.9,1.6-0.4,1.8-1.2C6,13,7.2,11.8,8.7,11.9
		c0-0.1,0-0.2-0.1-0.3c-1.4,0.2-2.8,0.5-4.2,0.7c-1.8,0.2-3.1-0.8-4.3-2.1C0.8,10.7,1,9.9,1.4,9.7c1.1-0.5,2.3-0.6,3.5-0.8
		c0.4-0.1,1.1,0,1-0.8c0-0.4,0.4-0.3,0.6-0.4c1.5-0.5,3-0.7,4.6-1c-0.7,0-1.5,0-2.2,0c-0.7,0-1.4,0.5-2.1-0.2c-0.1-0.1-0.5,0-0.7,0
		C5.6,6.6,5,6.1,5,5.5C5,5,4.5,5.2,4.2,5.1C4,5,3.6,5,3.7,4.7c0-0.2,0.3-0.3,0.5-0.4c2-0.6,3.9-0.9,6-1.3c1-0.2,1.8-0.2,2.8-0.2
		c0.7,0,1.4-0.5,2.2-0.4c0.6,0,1.2,0.3,1.4-0.5c0-0.1,0.5-0.2,0.6-0.1c0.9,0.9,1.8,0,2.7,0.1c1,0.2,2.1,0.3,3-0.1
		c1.3-0.6,2.6,0.4,3.9-0.2c-0.1-0.4-0.5-0.2-0.5-0.4c0.2-0.1,0.6-0.2,0.6,0c0.4,0.7,1.1,0.4,1.5,0.3c0.9-0.2,1.7-0.2,2.6-0.2
		c0.3,0,0.5,0.1,0.8-0.3c0.2-0.3,0.9-0.5,1.2-0.3c0.9,0.8,1.9,0.3,2.8,0.1c0.8-0.2,1.4,0.2,2.1,0.3c0.5,0.1,0.9,0.1,1.4-0.1
		c0.7-0.3,1.5-0.5,2.2-0.1c0.1,0.1,0.3,0.1,0.4,0c1-0.7,2.1,0,3-0.1c0.8-0.1,1.5,0.1,2.1,0.3c0.3,0.2,0.7,0.4,1.3,0.3
		c-1.3,0.9-1.9,2.3-3.4,2.9c0.9,0.1,1.5,0.1,2.1,0.2c0.3,0,0.7,0,0.3,0.5c-0.2,0.2-0.2,0.3,0.1,0.4c0.4,0,0.7,0.4,0.6,0.7
		c-0.1,0.5-0.6,0.3-1,0.3c-0.2,0-0.4,0-0.7,0c0,0.1,0,0.2,0,0.2c0.2,0.5,1.1,0,1,0.8c-0.7-0.3-1.1,0.8-2.1,0.1
		c0.4,0.8,1,0.3,1.4,0.7c-0.9,0.2-1.9-0.1-2.9,0.4c1,0.3,2-0.5,2.9,0.2c0.2,0.2,0.7,0,0.6,0.5c-0.1,0.5-0.4,0.5-0.8,0.5
		c-0.7,0.1-1.5-0.1-2.4,0.2c0.7,0.3,1.7-0.4,1.8,0.4c0.1,0.8-0.8,0.7-1.5,0.8c0.4,0.4,0.8,0.1,1.3,0.4c-3.8,0.4-7.4,0.5-11,1.4
		c3.8-0.2,7.6-1.2,11.5-0.5c-1.1,0.5-2.5,0.2-3.9,0.8c1.2,0.2,2,0.8,3.1,0.5C45.3,14,45.2,14,45,13.9c0.2-0.2,0.3-0.4,0.6-0.3
		c0.6,0.2,1,0.8,1.8,0.6c-0.3,1.4-1.5,0.9-2.4,1.2c0.7,0.3,1.4,0,1.9,0.4c-0.5,1-1.5,0.4-2.5,0.8c0.7,0,1.2,0.1,1.9,0.1
		c-0.5,0.2-0.8,0.3-1.2,0.5c1.7,0.5,3.4,0.1,4.8,0.7c-0.6,1.5-2.1,0.6-3.1,1.1c0.7,0.2,1.5-0.1,2.1,0.3c-0.3,0.9-1.2,0.5-1.9,0.8
		c0.2,0.1,0.4,0.2,0.7,0.3c-0.7,0.1-1.3,0.2-1.9,0.5c1.1,0.2,2.2-0.2,3.2,0.6c-1.6,0.1-3.1,0.2-4.6,0.3c0.3,0.7,0.4,1.1-0.6,1.1
		c-1,0-1.6,1.2-2.6,1.2C41.1,24.3,41,24.3,40.9,24.3c-0.8,0.1-1.6,0.2-2.5,0.4C39.4,25.1,40.2,25.1,40.9,24.3z M15,11
		c2-0.6,4.1-0.6,6.2-0.9c-1.5-0.2-3-0.1-4.4,0.2C16.1,10.5,15.3,10.1,15,11c-1.1-0.8-2.1,0.1-3.2,0.2C12.9,11.5,13.9,11,15,11z
		 M21.4,9.9c0.3,0.4,0.5,0.3,0.8,0.3c1.5-0.3,3-0.2,4.4-0.6c0.4-0.1,1.1,0.5,1.2-0.1c0-0.5-0.8-0.1-1.2-0.1
		C24.8,9.4,23.1,9.6,21.4,9.9z M25.7,22.5c0-0.1-0.1-0.2-0.1-0.3c-1.9,0.2-3.9,0.5-5.8,0.7c0,0.1,0,0.2,0,0.3
		C21.7,23.1,23.7,22.9,25.7,22.5z M22.8,10.9c0.5,0.5,3.3,0.3,3.9-0.2C25.3,10.3,24.1,11.1,22.8,10.9z M38.8,4.8
		c-1.7-0.1-3.5-0.3-5.2,0.3C35.4,5,37.1,4.9,38.8,4.8z M15.8,19.1c-1.5-0.2-2.8,0.2-4,0.4C13.1,19.3,14.4,19.7,15.8,19.1z M11.6,6.6
		c1.1-0.1,2.2,0.2,3.2-0.4C13.8,6.3,12.6,6,11.6,6.6z M39.7,13.6c0.4,0.7,1.1,0.3,1.5,0.6c0.2,0.1,0.5,0.2,0.5-0.2
		c0-0.2-0.1-0.4-0.3-0.5C40.8,13.1,40.3,13.8,39.7,13.6z M22.7,27.2c1,0.3,2,0.1,2.9-0.4C24.7,26.9,23.7,27.1,22.7,27.2z M26.9,26.6
		c1.2,0,2-0.4,2.9-0.6C28.8,25.9,27.9,25.9,26.9,26.6z M33.2,25.3c-0.7,0.1-1.5,0.2-2.2,0.3c0,0.1,0,0.2,0,0.3
		C31.8,26,32.5,25.8,33.2,25.3z"/>
</g>
</svg>
