<?xml version="1.0" encoding="utf-8"?>
<!-- Generator: Adobe Illustrator 22.0.1, SVG Export Plug-In . SVG Version: 6.00 Build 0)  -->
<svg version="1.1" id="Layer_1" xmlns="http://www.w3.org/2000/svg" xmlns:xlink="http://www.w3.org/1999/xlink" x="0px" y="0px"
	 viewBox="0 0 50 50" style="enable-background:new 0 0 50 50;" xml:space="preserve">
<style type="text/css">
	.st0{fill:#F6AB32;}
	.st1{fill:#F7CA16;}
</style>
<path class="st0" d="M38.1,42.1H2.7c-1.2,0-2.2-1-2.2-2.2v-29c0-1.2,1-2.2,2.2-2.2h12.4l4.4,4.5h18.7c1.2,0,2.2,1,2.2,2.2V40
	C40.3,41.2,39.3,42.1,38.1,42.1z"/>
<path class="st1" d="M11.4,16.1h36.1c1.1,0,1.8,1,1.4,2l-8.2,23.1c-0.2,0.6-0.8,1-1.4,1L2.4,42.1c7.1-2.8,7.5-19.3,7.4-24.5
	C9.8,16.8,10.5,16.1,11.4,16.1z"/>
</svg>
