<?xml version="1.0" encoding="utf-8"?>
<!-- Generator: Adobe Illustrator 22.0.1, SVG Export Plug-In . SVG Version: 6.00 Build 0)  -->
<svg version="1.1" id="Layer_1" xmlns="http://www.w3.org/2000/svg" xmlns:xlink="http://www.w3.org/1999/xlink" x="0px" y="0px"
	 viewBox="0 0 50 50" style="enable-background:new 0 0 50 50;" xml:space="preserve">
<style type="text/css">
	.st0{fill:#FFFFFF;}
	.st1{fill:#FDCD0B;}
	.st2{fill:#F4F4F4;}
</style>
<g>
	<path class="st0" d="M43.6,14c0-0.7,0.1-1.4,0.3-2.1c-4.8,5.6-9.5,11.2-14.3,16.9c-0.7,0.9-1.5,1.1-2.6,0.8
		c-6.3-1.9-12.6-3.8-18.9-5.7c-0.4-0.1-0.8-0.2-1.1-0.1c-0.9,0.1-1.4,0.5-1.6,1.3c-0.3,1.2-0.2,2.3,0.2,3.4c0.2,0.4,0.5,0.7,1,0.9
		c7.1,2.2,14.3,4.4,21.4,6.6c0.4,0.1,0.6,0.1,0.9-0.3c4.6-5.7,9.3-11.4,13.9-17.2c0.2-0.2,0.3-0.5,0.3-0.7c-0.2-1.2,0-2.3,0.4-3.4
		C43.4,14.2,43.5,14.1,43.6,14z"/>
	<path class="st1" d="M1.4,35.3c0-1.4,0.4-2.7,1.1-3.9c0.2-0.3,0.2-0.5,0-0.8c-0.8-1.3-1-2.7-1.1-4.1c-0.1-1.9,0.1-3.7,1-5.4
		c0.3-0.5,0.6-1.1,1-1.5C9,13.5,14.5,7.4,19.9,1.3c0.8-0.8,1.5-1.1,2.6-0.8c7.7,1.7,15.3,3.5,23,5.2c1.7,0.4,2.1,1.8,1,3.1
		c-5.6,6.7-11.3,13.3-16.9,20c-0.7,0.9-1.5,1.1-2.6,0.8c-6.3-1.9-12.6-3.8-18.9-5.7c-0.4-0.1-0.8-0.2-1.1-0.1
		c-0.9,0.1-1.4,0.5-1.6,1.3c-0.3,1.2-0.2,2.3,0.2,3.4c0.2,0.4,0.5,0.7,1,0.9c7.1,2.2,14.3,4.4,21.4,6.6c0.4,0.1,0.6,0.1,0.9-0.3
		c4.6-5.7,9.3-11.4,13.9-17.2c0.2-0.2,0.3-0.5,0.3-0.7c-0.2-1.2,0-2.3,0.4-3.4s1.3-1.6,2.4-1.3c1,0.3,1.5,1.3,1.2,2.3
		c-0.1,0.4-0.2,0.8-0.2,1.3c0,0.3,0.1,0.7,0.2,1c0.2,0.5,0.2,1.1,0,1.6c-0.6,1.4-0.9,2.9-0.8,4.5c0,1.2,0.2,2.4,0.7,3.5
		c0.4,0.9,0.3,1.6-0.3,2.4C41.3,36,36,42.4,30.8,48.8c-0.6,0.8-1.4,1-2.4,0.6c-5.9-1.9-11.8-3.8-17.8-5.7c-1.4-0.5-2.9-1-4.3-1.4
		c-2.6-0.7-4-2.6-4.6-5.1C1.6,36.7,1.5,36,1.4,35.3z M42.3,25c-0.1,0.1-0.2,0.2-0.3,0.3c-3.7,4.6-7.4,9.1-11.1,13.7
		c-0.8,1-1.5,1.2-2.7,0.8c-7.3-2.2-14.5-4.5-21.8-6.7c-0.4-0.1-0.6,0-0.8,0.3c-0.5,0.9-0.5,1.9-0.3,2.9s0.6,1.9,1.7,2.3
		c7,2.2,14,4.5,21,6.7c0.3,0.1,0.5,0.1,0.7-0.2c1.2-1.5,2.4-3,3.7-4.5c3.4-4.2,6.8-8.3,10.3-12.5c0.1-0.1,0.2-0.3,0.2-0.5
		C42.8,26.8,42.6,26,42.3,25z M31.7,13.1c0.4-0.2,0.9-0.3,1.2-0.6c0.5-0.5,1-1.1,1.4-1.6c0.3-0.3,0.2-0.6-0.2-0.8
		C34,10,33.8,9.9,33.6,9.8c-4-1-7.9-1.9-11.9-2.9c-1-0.2-1.8,0-2.4,0.8c-0.2,0.2-0.4,0.5-0.6,0.7c-0.9,1-0.7,1.4,0.6,1.7
		c3.1,0.8,6.3,1.5,9.4,2.3C29.7,12.6,30.6,12.9,31.7,13.1z"/>
	<path class="st0" d="M42.3,25c0.2,0.9,0.4,1.8,0.6,2.7c0,0.1-0.1,0.4-0.2,0.5c-3.4,4.2-6.8,8.3-10.3,12.5c-1.2,1.5-2.5,3-3.7,4.5
		c-0.2,0.3-0.4,0.3-0.7,0.2c-7-2.2-14-4.5-21-6.7c-1.1-0.4-1.5-1.3-1.7-2.3s-0.2-1.9,0.3-2.9C5.8,33.1,6,33,6.4,33.2
		c7.3,2.2,14.5,4.5,21.8,6.7c1.2,0.4,1.9,0.2,2.7-0.8c3.7-4.6,7.4-9.1,11.1-13.7C42.1,25.3,42.2,25.2,42.3,25z"/>
	<path class="st2" d="M31.7,13.1c-1.1-0.3-2-0.5-3-0.7c-3.1-0.8-6.3-1.5-9.4-2.3c-1.3-0.3-1.4-0.7-0.6-1.7c0.2-0.2,0.4-0.5,0.6-0.7
		c0.6-0.8,1.4-1,2.4-0.8c4,1,7.9,1.9,11.9,2.9c0.2,0,0.4,0.1,0.6,0.2c0.3,0.2,0.4,0.5,0.2,0.8c-0.5,0.6-0.9,1.2-1.4,1.6
		C32.6,12.9,32,13,31.7,13.1z"/>
</g>
</svg>
