<?xml version="1.0" encoding="utf-8"?>
<!-- Generator: Adobe Illustrator 22.0.1, SVG Export Plug-In . SVG Version: 6.00 Build 0)  -->
<svg version="1.1" id="Layer_1" xmlns="http://www.w3.org/2000/svg" xmlns:xlink="http://www.w3.org/1999/xlink" x="0px" y="0px"
	 viewBox="0 0 50 50" style="enable-background:new 0 0 50 50;" xml:space="preserve">
<style type="text/css">
	.st0{fill:#6ABC45;}
	.st1{fill:#FDCD08;}
</style>
<path class="st0" d="M25,14.5c0,2.8,0.1,5.6,0,8.4c-0.1,1.6,0.5,2.2,2.2,2.2c5.6-0.1,11.2,0,16.8,0c2.4,0,2.7,0.3,2.6,2.7
	c-0.5,11-9.6,20.4-20.1,21.5C12.7,50.6,3.3,41.1,1.2,31.5c-2.6-12,4.3-23.7,16.2-27.1c1.9-0.5,3.9-0.6,5.8-0.8
	C24.4,3.4,25,4.1,25,5.4C25,8.4,25,11.5,25,14.5C25,14.5,25,14.5,25,14.5z M22.2,17.2c0-2.9,0-5.8,0-8.8c0-2-0.2-2.3-2.2-1.7
	c-2,0.5-4,1.1-5.9,2.1C1.9,15-0.2,32.2,10.1,41.3c1.1,1,1.7,0.9,2.5-0.3c2.9-4.2,5.9-8.4,8.9-12.6c0.4-0.6,0.7-1.5,0.7-2.3
	C22.2,23.2,22.2,20.2,22.2,17.2z M22.5,28.2c0.9,1,1.3,1.5,1.8,2c3.2,3.2,6.4,6.4,9.6,9.6c2.5,2.5,2.4,2.4,4.8-0.1
	c1-1.1,1-1.8-0.1-2.8c-2.2-2.1-4.4-4.2-6.4-6.5c-1.8-2.1-3.8-3.1-6.5-2.7C24.8,27.9,23.9,28,22.5,28.2z M35.2,43
	c-0.8-0.9-1.3-1.5-1.9-2c-2.9-2.9-5.8-5.8-8.7-8.7c-2.9-2.9-2.2-3-4.8,0.6c-0.6,0.9-0.6,1.5,0.2,2.3c3.2,3.1,6.2,6.2,9.4,9.3
	c0.4,0.4,1.1,0.8,1.5,0.6C32.3,44.5,33.6,43.8,35.2,43z M28.7,45.8c-0.6-0.7-0.9-1.3-1.4-1.7c-2.1-2.2-4.3-4.3-6.4-6.4
	c-3-3-2.3-3-4.8,0.4c-0.7,0.9-0.6,1.7,0.2,2.5c1.4,1.3,2.8,2.5,3.9,3.9c1.7,2.3,3.9,2.4,6.4,1.8C27.1,46.2,27.7,46.1,28.7,45.8z
	 M32.3,28.1c2.7,2.8,5.5,5.6,8.5,8.7c0.4-0.8,1-1.6,1.3-2.6c0.3-0.8,0.7-1.9,0.4-2.5C40.8,28.4,35.7,26.7,32.3,28.1z M18.9,46.2
	c0.1-0.2,0.3-0.5,0.4-0.7c-1.4-1.4-2.8-2.9-4.3-4.2c-0.2-0.2-1.3,0.2-1.6,0.6c-0.3,0.5-0.4,1.7-0.1,1.8
	C15.2,44.6,17.1,45.4,18.9,46.2z M42.7,30.1c0.2-0.1,0.5-0.2,0.7-0.3c0-0.6,0.2-1.5,0-1.7c-0.5-0.3-1.3-0.3-2-0.3
	c-0.1,0.3-0.3,0.5-0.4,0.8C41.5,29.1,42.1,29.6,42.7,30.1z"/>
<path class="st1" d="M38.7,21.6c-2.7,0-5.5-0.1-8.2,0c-1.5,0.1-2.1-0.3-2.1-2c0.1-5.6,0-11.2,0-16.8c0-2,0.4-2.4,2.5-2.1
	c7.9,1.2,13.6,5.4,16.8,12.7c0.8,1.7,1.2,3.6,1.5,5.5c0.4,2.3,0,2.6-2.3,2.6C44.2,21.6,41.5,21.6,38.7,21.6z"/>
</svg>
