<?xml version="1.0" encoding="utf-8"?>
<!-- Generator: Adobe Illustrator 22.0.1, SVG Export Plug-In . SVG Version: 6.00 Build 0)  -->
<svg version="1.1" id="Layer_1" xmlns="http://www.w3.org/2000/svg" xmlns:xlink="http://www.w3.org/1999/xlink" x="0px" y="0px"
	 viewBox="0 0 50 50" style="enable-background:new 0 0 50 50;" xml:space="preserve">
<style type="text/css">
	.st0{fill:#FDCD0B;}
	.st1{fill:#FCB64F;}
	.st2{fill:#434343;}
	.st3{fill:#848484;}
	.st4{fill:#BA2E26;}
	.st5{fill:#1B75BC;}
</style>
<g>
	<path class="st0" d="M32.9,17.6l-1.3-4.2c-0.2-0.8-0.7-1.5-1.3-2.1c-0.4-0.4-1-0.4-1.5,0c-1.1,0.9-2.4,1.4-3.8,1.4
		c-1.5,0-2.8-0.5-3.8-1.3c-0.5-0.4-1.1-0.4-1.5,0c-0.6,0.6-1,1.3-1.2,2.1l-1.3,4.2c-0.1,0.2,0.2,0.4,0.4,0.4l6.2,0.4
		c0.6,0,1.3,0,1.9,0l6.6-0.4C32.7,18,32.9,17.8,32.9,17.6z"/>
	<path class="st1" d="M26.2,11.2H24c-1.6,0-2.9-1.2-2.9-2.7L21,5.6c0-1.6,1.3-2.9,2.9-2.9h2.4c1.6,0,3,1.3,2.9,2.9l-0.1,2.9
		C29.1,10,27.8,11.2,26.2,11.2z"/>
	<path class="st1" d="M20.8,7.7L20.8,7.7c-0.2,0-0.4-0.1-0.4-0.3l-0.3-1.2c-0.1-0.2,0.1-0.4,0.3-0.5l0.2,0c0.2,0,0.4,0.1,0.4,0.3
		l0.1,1.2C21.1,7.5,21,7.7,20.8,7.7z"/>
	<path class="st1" d="M29.4,7.7L29.4,7.7c0.2,0,0.4-0.1,0.4-0.3l0.3-1.2c0.1-0.2-0.1-0.4-0.3-0.5l-0.2,0c-0.2,0-0.4,0.1-0.4,0.3
		l-0.1,1.2C29.1,7.5,29.2,7.7,29.4,7.7z"/>
	<path class="st2" d="M23.5,5.2L22.2,5c-0.3,0-0.6,0.2-0.6,0.5l-0.2,1.3l-0.4,0.1l-0.1-1.3c-0.2-1.7,0.8-3.4,2.5-3.8
		c0.1,0,0.2,0,0.2-0.1l2.1-0.4c0.4-0.1,0.8,0.2,0.8,0.7v0c0,0.1,0,0.2,0,0.2C26.2,3.8,25,5,23.5,5.2z"/>
	<path class="st2" d="M27.7,5.4l0.8-0.1c0.2,0,0.4,0.2,0.4,0.4L29,6.8l0.3,0.1l0.1-1.2c0.1-1.5-0.5-3-1.5-3.4c0,0-0.1,0-0.1,0
		l-1.3-0.3c-0.3-0.1-0.5,0.2-0.5,0.6v0c0,0.1,0,0.1,0,0.2C26,4.1,26.7,5.2,27.7,5.4z"/>
</g>
<path class="st3" d="M32.4,33c-0.5-0.5-1-1-1.4-1.4c0,0,0,0,0,0c-1.3-1.3-2.6-2.6-3.8-3.9v-4.9c0-0.4-0.4-0.8-0.8-0.8h-2.5
	c-0.4,0-0.8,0.4-0.8,0.8v5c-1.8,1.7-3.5,3.5-5.3,5.3c-0.5,0.5-0.5,1.2,0,1.8c0.2,0.2,0.4,0.4,0.6,0.6c0.8,0.7,1.4,0.7,2.2,0
	c1.3-1.3,2.6-2.6,3.9-3.9c0.2-0.2,0.4-0.4,0.6-0.7c0,0,0,0,0,0.1c0,0,0,0,0,0c0.1,0.1,0.2,0.2,0.4,0.4c0.1,0.1,0.2,0.2,0.3,0.4
	c1.3,1.3,2.6,2.6,3.9,3.9c0.8,0.7,1.4,0.7,2.2,0c0.2-0.2,0.4-0.4,0.6-0.6C32.9,34.2,32.9,33.6,32.4,33z"/>
<g>
	<path class="st4" d="M15.7,47.9l-1.3-4.2c-0.2-0.8-0.7-1.5-1.3-2.1c-0.4-0.4-1-0.4-1.5,0c-1.1,0.9-2.4,1.4-3.8,1.4
		c-1.5,0-2.8-0.5-3.8-1.3c-0.5-0.4-1.1-0.4-1.5,0c-0.6,0.6-1,1.3-1.2,2.1l-1.3,4.2c-0.1,0.2,0.2,0.4,0.4,0.4l6.2,0.4
		c0.6,0,1.3,0,1.9,0l6.6-0.4C15.5,48.3,15.7,48.1,15.7,47.9z"/>
	<path class="st1" d="M9.1,41.5H6.8c-1.6,0-2.9-1.2-2.9-2.7l-0.1-2.9c0-1.6,1.3-2.9,2.9-2.9h2.4c1.6,0,3,1.3,2.9,2.9L12,38.7
		C11.9,40.2,10.6,41.5,9.1,41.5z"/>
	<path class="st1" d="M3.6,38L3.6,38c-0.2,0-0.4-0.1-0.4-0.3l-0.3-1.2c-0.1-0.2,0.1-0.4,0.3-0.5l0.2,0c0.2,0,0.4,0.1,0.4,0.3
		l0.1,1.2C3.9,37.8,3.8,38,3.6,38z"/>
	<path class="st1" d="M12.2,38L12.2,38c0.2,0,0.4-0.1,0.4-0.3l0.3-1.2c0.1-0.2-0.1-0.4-0.3-0.5l-0.2,0c-0.2,0-0.4,0.1-0.4,0.3
		l-0.1,1.2C11.9,37.8,12.1,38,12.2,38z"/>
	<path class="st2" d="M6.3,35.5L5,35.3c-0.3,0-0.6,0.2-0.6,0.5l-0.2,1.3l-0.4,0.1l-0.1-1.3c-0.2-1.7,0.8-3.4,2.4-3.8
		c0.1,0,0.2,0,0.2-0.1l2.1-0.4c0.4-0.1,0.8,0.2,0.8,0.7v0c0,0.1,0,0.2,0,0.2C9,34.1,7.8,35.3,6.3,35.5z"/>
	<path class="st2" d="M10.5,35.6l0.8-0.1c0.2,0,0.4,0.1,0.4,0.4l0.2,1.2l0.3,0.1l0.1-1.2c0.1-1.5-0.5-3-1.5-3.4c0,0-0.1,0-0.1,0
		l-1.3-0.3c-0.3-0.1-0.5,0.2-0.5,0.6v0c0,0.1,0,0.1,0,0.2C8.8,34.4,9.6,35.5,10.5,35.6z"/>
</g>
<g>
	<path class="st5" d="M49.8,47.8l-1.3-4.3c-0.2-0.8-0.7-1.5-1.3-2.2c-0.4-0.4-1-0.4-1.5,0c-1.1,0.9-2.5,1.4-3.9,1.4
		c-1.5,0-2.8-0.5-3.8-1.3C37.6,41,37,41,36.6,41.4c-0.6,0.6-1,1.3-1.2,2.1l-1.3,4.3c-0.1,0.2,0.2,0.4,0.4,0.4l6.3,0.4
		c0.6,0,1.3,0,1.9,0l6.7-0.4C49.7,48.2,49.9,48,49.8,47.8z"/>
	<path class="st1" d="M43.1,41.3h-2.3c-1.6,0-2.9-1.2-2.9-2.8l-0.1-2.9c0-1.6,1.3-3,2.9-3h2.4c1.7,0,3,1.3,2.9,3l-0.1,2.9
		C46,40,44.7,41.3,43.1,41.3z"/>
	<path class="st1" d="M37.6,37.8L37.6,37.8c-0.2,0-0.4-0.1-0.4-0.3l-0.3-1.2c-0.1-0.2,0.1-0.4,0.3-0.5l0.2,0c0.2,0,0.4,0.1,0.4,0.3
		l0.1,1.2C37.9,37.6,37.8,37.7,37.6,37.8z"/>
	<path class="st1" d="M46.3,37.8L46.3,37.8c0.2,0,0.4-0.1,0.4-0.3l0.3-1.2c0.1-0.2-0.1-0.5-0.3-0.5l-0.2,0c-0.2,0-0.4,0.1-0.4,0.3
		L46,37.4C46,37.6,46.1,37.7,46.3,37.8z"/>
	<path class="st2" d="M40.3,35.2L39,35c-0.3,0-0.6,0.2-0.6,0.5l-0.2,1.3L37.7,37l-0.1-1.4c-0.2-1.7,0.8-3.4,2.5-3.8
		c0.1,0,0.2,0,0.2-0.1l2.1-0.4c0.4-0.1,0.8,0.3,0.8,0.7l0,0c0,0.1,0,0.2,0,0.2C43.1,33.8,41.8,35,40.3,35.2z"/>
	<path class="st2" d="M44.6,35.4l0.8-0.2c0.2,0,0.4,0.2,0.4,0.4l0.2,1.2l0.3,0.1l0.1-1.2c0.1-1.6-0.5-3.1-1.6-3.5c0,0-0.1,0-0.1,0
		l-1.3-0.4c-0.3-0.1-0.5,0.2-0.5,0.6l0,0c0,0.1,0,0.1,0,0.2C42.9,34.1,43.6,35.2,44.6,35.4z"/>
</g>
</svg>
