<?xml version="1.0" encoding="utf-8"?>
<!-- Generator: Adobe Illustrator 22.0.1, SVG Export Plug-In . SVG Version: 6.00 Build 0)  -->
<svg version="1.1" id="Layer_1" xmlns="http://www.w3.org/2000/svg" xmlns:xlink="http://www.w3.org/1999/xlink" x="0px" y="0px"
	 viewBox="0 0 50 50" style="enable-background:new 0 0 50 50;" xml:space="preserve">
<style type="text/css">
	.st0{fill:#6ABC45;}
	.st1{fill:#50723E;}
	.st2{fill:#FDCD08;}
</style>
<g>
	<path class="st0" d="M25.8,25.7c0.4,0.3,0.7,0.6,1.2,1c-2.3,2.1-4.6,4.1-7.1,6.3c-0.4-2.8-0.9-5.3-1.1-7.9c-0.1-2.1-1-3.3-2.9-4.3
		c-2.8-1.4-5.5-3.1-8.5-4.8c14-5.1,27.8-10.2,41.9-15.4c-4.5,10.1-9,20-13.4,30c-3.4-1.7-6.7-3.5-10-5.2
		C25.9,25.5,25.9,25.6,25.8,25.7z M43.7,5.7c-0.4,0-0.5,0-0.5,0c-7.5,5.1-15,10.2-22.4,15.3c-0.3,0.2-0.4,0.7-0.4,1.1
		c0.3,2.1,0.6,4.3,0.9,6.4c0,0.2,0.1,0.4,0.3,0.7c0.8-2,1.5-3.8,2.3-5.5c0.3-0.7,0.8-1.5,1.4-2c4-3.5,8.1-7,12.2-10.6
		C39.4,9.4,41.5,7.6,43.7,5.7z"/>
	<path class="st1" d="M43.7,5.7c-2.2,1.9-4.3,3.7-6.3,5.5c-4.1,3.5-8.1,7-12.2,10.6c-0.6,0.5-1.1,1.3-1.4,2
		c-0.8,1.7-1.5,3.5-2.3,5.5c-0.1-0.3-0.3-0.5-0.3-0.7c-0.3-2.1-0.6-4.3-0.9-6.4c0-0.4,0.1-0.9,0.4-1.1c7.5-5.1,14.9-10.2,22.4-15.3
		C43.2,5.7,43.3,5.7,43.7,5.7z"/>
</g>
<path class="st2" d="M15.7,28.1l-11,9.7c-0.9,0.8-2.3,0.7-3.1-0.2l-0.1-0.1c-0.8-0.9-0.7-2.3,0.2-3.1l11-9.7
	c0.9-0.8,2.3-0.7,3.1,0.2l0.1,0.1C16.7,26,16.6,27.3,15.7,28.1z"/>
<path class="st2" d="M31.3,32.8L20.9,43.2c-0.9,0.9-2.2,0.9-3.1,0l-0.1-0.1c-0.9-0.9-0.9-2.2,0-3.1l10.4-10.4c0.9-0.9,2.2-0.9,3.1,0
	l0.1,0.1C32.1,30.6,32.1,32,31.3,32.8z"/>
<path class="st2" d="M14.8,38.9l-9.4,8.2c-0.9,0.8-2.3,0.7-3.1-0.2l-0.1-0.1c-0.8-0.9-0.7-2.3,0.2-3.1l9.4-8.2
	c0.9-0.8,2.3-0.7,3.1,0.2l0.1,0.1C15.8,36.8,15.7,38.2,14.8,38.9z"/>
<path class="st2" d="M14.5,49.1L14,49.5c-1,0.7-2.3,0.6-3.1-0.4L10.9,49c-0.7-1-0.6-2.3,0.4-3.1l0.5-0.4c1-0.7,2.3-0.6,3.1,0.4
	l0.1,0.1C15.6,47,15.5,48.4,14.5,49.1z"/>
</svg>
