<?xml version="1.0" encoding="utf-8"?>
<!-- Generator: Adobe Illustrator 22.0.1, SVG Export Plug-In . SVG Version: 6.00 Build 0)  -->
<svg version="1.1" id="Layer_1" xmlns="http://www.w3.org/2000/svg" xmlns:xlink="http://www.w3.org/1999/xlink" x="0px" y="0px"
	 viewBox="0 0 50 50" style="enable-background:new 0 0 50 50;" xml:space="preserve">
<style type="text/css">
	.st0{fill:#FFFFFF;}
	.st1{fill:#FDCD08;}
	.st2{fill:#1F2437;}
	.st3{fill:#6ABC45;}
	.st4{fill:#2D2D2D;}
</style>
<path class="st0" d="M8.1,49.4c-0.1,0-0.1-0.1-0.2-0.1c-1.1-0.4-1.7-1.2-1.7-2.4c0-5.2,0-10.4,0-15.6c0-7.8,0-15.7,0-23.5
	c0-1.6,1.2-2.7,2.7-2.7c2.1,0.1,28.7,0,30.7,0c1.5,0,2.5,1,2.5,2.5c0,2.3,0,4.6,0,6.9c0,8.8,0,17.6,0,26.3c0,2,0,3.9,0,5.9
	c0,1.3-0.5,2-1.7,2.5l-0.1,0.1C29.6,49.4,18.8,49.4,8.1,49.4z"/>
<path class="st1" d="M8.1,49.4c-0.1,0-0.1-0.1-0.2-0.1c-1.1-0.4-1.7-1.2-1.7-2.4c0-5.2,0-10.4,0-15.6c0-7.8,0-15.7,0-23.5
	c0-1.6,1.2-2.7,2.7-2.7c2.1,0.1,4.2,0,6.3,0c-0.4,1-0.8,2-1.2,2.9c0,0.1-0.3,0.1-0.4,0.1c-1.4,0-2.8,0-4.3,0c0,12.7,0,25.4,0,38.1
	c9.9,0,19.8,0,29.7,0c0-12.7,0-25.4,0-38.1c-0.1,0-0.3,0-0.4,0c-1.3,0-2.6,0-3.9,0c-0.3,0-0.4-0.1-0.6-0.4c-0.3-0.9-0.7-1.7-1-2.7
	c0.2,0,0.3,0,0.4,0c2,0,4,0,6,0C41,5,42,6,42,7.5c0,2.3,0,4.6,0,6.9c0,8.8,0,17.6,0,26.3c0,2,0,3.9,0,5.9c0,1.3-0.5,2-1.7,2.5
	l-0.1,0.1C29.6,49.4,18.8,49.4,8.1,49.4z"/>
<path class="st2" d="M24.5,0.6c0.9,0.4,1.5,1,2,1.8c0.6,1,1.6,1.5,2.7,1.5s1.9,0.5,2.3,1.5s0.8,2,1.2,3c0.3,0.9-0.1,1.5-1,1.5
	c-5.1,0-10.1,0-15.2,0c-0.8,0-1.3-0.6-1-1.4c0.4-1,0.8-2,1.2-3c0.4-1,1.2-1.5,2.2-1.5c1.2,0,2.2-0.5,2.8-1.5
	c0.5-0.8,1.1-1.4,1.9-1.7C24,0.6,24.3,0.6,24.5,0.6z M23,4.8c0,0.6,0.5,1.2,1.2,1.1c0.6,0,1.1-0.5,1.1-1.1s-0.5-1.2-1.2-1.1
	C23.5,3.6,23,4.2,23,4.8z"/>
<path class="st3" d="M19.1,22c-1.4,0-2.7,0-4,0c0-1.3,0-2.7,0-4c0.2,0,0.3-0.1,0.5-0.1c-0.2-0.3-0.3-0.5-0.5-0.8
	c0.4-0.3,0.8-0.5,1.2-0.8c0.2,0.5,0.5,0.9,0.7,1.3c0.1,0.3,0.3,0.3,0.5,0.3c0.6,0.1,1-0.1,1.5-0.6c1-1.1,2-2.1,3.1-3.1
	c0.1-0.1,0.2-0.2,0.4-0.4c0,0.8,0,1.5,0,2.3c0,0.1-0.2,0.3-0.3,0.4c-0.9,0.8-1.8,1.5-2.7,2.2c-0.2,0.1-0.3,0.4-0.3,0.6
	C19.1,20.2,19.1,21.1,19.1,22z M15.8,21.2c0.8,0,1.5,0,2.2,0c0.1,0,0.2-0.2,0.2-0.3c0-0.4,0-0.7,0-1.2c-0.3,0.2-0.6,0.4-0.8,0.6
	c-0.4-0.5-0.7-0.9-1-1.4c-0.1-0.1-0.3-0.2-0.6-0.3C15.8,19.6,15.8,20.3,15.8,21.2z"/>
<path class="st3" d="M15,26.9c0.1,0,0.3-0.1,0.5-0.1c-0.2-0.3-0.3-0.5-0.5-0.8c0.4-0.3,0.8-0.5,1.2-0.8c0.2,0.4,0.5,0.9,0.7,1.3
	c0.1,0.3,0.3,0.3,0.5,0.3c0.6,0.1,1-0.1,1.5-0.6c1-1.1,2-2.1,3.1-3.1c0.1-0.1,0.2-0.2,0.4-0.4c0,0.8,0,1.5,0,2.3
	c0,0.1-0.2,0.3-0.3,0.4c-0.8,0.7-1.7,1.4-2.6,2.1c-0.3,0.2-0.4,0.4-0.4,0.8c0,0.8,0,1.6,0,2.5c-1.4,0-2.7,0-4,0
	C15,29.6,15,28.3,15,26.9z M15.8,27.6c0,0.9,0,1.7,0,2.5c0.8,0,1.6,0,2.4,0c0-0.5,0-0.9,0-1.4c-0.3,0.2-0.5,0.4-0.8,0.6
	C16.9,28.8,16.7,28,15.8,27.6z"/>
<path class="st3" d="M21.6,21.2c0-0.3,0-0.5,0-0.8c4.3,0,8.7,0,13,0c0,0.3,0,0.5,0,0.8C30.2,21.2,25.9,21.2,21.6,21.2z"/>
<path class="st3" d="M21.6,28.5c0-0.3,0-0.5,0-0.8c4.3,0,8.7,0,13,0c0,0.2,0,0.5,0,0.8C30.3,28.5,25.9,28.5,21.6,28.5z"/>
<path class="st3" d="M21.6,30.1c0-0.3,0-0.5,0-0.8c4.3,0,8.7,0,13,0c0,0.3,0,0.5,0,0.8C30.2,30.1,25.9,30.1,21.6,30.1z"/>
<path class="st4" d="M34.6,36.7c0,0.2,0,0.5,0,0.8c-4.3,0-8.7,0-13,0c0-0.2,0-0.5,0-0.8C25.9,36.7,30.2,36.7,34.6,36.7z"/>
<path class="st3" d="M34.6,18.8c0,0.3,0,0.5,0,0.8c-4.3,0-8.7,0-13,0c0-0.3,0-0.5,0-0.8C25.9,18.8,30.2,18.8,34.6,18.8z"/>
<path class="st4" d="M34.6,38.4c0,0.3,0,0.5,0,0.7c-4.3,0-8.7,0-13,0c0-0.2,0-0.5,0-0.7C25.9,38.4,30.2,38.4,34.6,38.4z"/>
<path class="st4" d="M15,35.9c1.4,0,2.7,0,4,0c0,1.3,0,2.7,0,4c-1.3,0-2.7,0-4,0C15,38.6,15,37.3,15,35.9z M18.3,39.1
	c0-0.8,0-1.5,0-2.2c0-0.1-0.1-0.3-0.2-0.3c-0.7,0-1.5,0-2.2,0c0,0.9,0,1.6,0,2.4C16.6,39.1,17.4,39.1,18.3,39.1z"/>
</svg>
